<?xml version="1.0" standalone="no"?>
<!DOCTYPE svg PUBLIC "-//W3C//DTD SVG 20010904//EN"
 "http://www.w3.org/TR/2001/REC-SVG-20010904/DTD/svg10.dtd">
<svg version="1.0" xmlns="http://www.w3.org/2000/svg"
 width="700.000000pt" height="700.000000pt" viewBox="0 0 700.000000 700.000000"
 preserveAspectRatio="xMidYMid meet">
<metadata>
Created by potrace 1.11, written by Peter Selinger 2001-2013
</metadata>
<g transform="translate(0.000000,700.000000) scale(0.100000,-0.100000)"
fill="#000000" stroke="none">
<path d="M1461 6887 c-79 -28 -70 -118 21 -200 29 -27 62 -53 73 -58 11 -5 40
-23 65 -39 25 -16 68 -42 95 -58 161 -94 634 -535 787 -732 220 -285 316 -506
322 -745 2 -46 -4 -94 -19 -170 -11 -53 -66 -173 -108 -237 -54 -80 -191 -219
-287 -289 -76 -56 -109 -76 -303 -190 -103 -61 -319 -215 -382 -274 -213 -198
-325 -325 -449 -510 -89 -132 -196 -351 -244 -501 -80 -241 -108 -443 -99
-704 6 -161 9 -200 21 -263 2 -12 7 -40 11 -62 4 -22 18 -82 32 -133 178 -683
723 -1225 1493 -1484 63 -21 115 -38 115 -38 0 1 7 -1 15 -4 71 -24 318 -75
440 -91 25 -3 61 -8 80 -10 168 -22 532 -25 675 -6 138 19 144 20 240 41 482
103 909 336 1265 690 144 143 172 174 257 285 380 502 578 1098 577 1735 -1
119 -9 264 -19 340 -20 143 -24 164 -52 290 -86 391 -267 776 -512 1090 -210
270 -596 660 -895 905 -27 22 -65 54 -85 71 -182 154 -603 452 -811 575 -41
24 -76 47 -78 51 -2 5 -8 8 -13 8 -5 0 -26 10 -47 23 -129 81 -519 275 -697
347 -11 4 -36 15 -55 23 -89 39 -407 145 -529 177 -82 22 -493 115 -576 131
-27 5 -61 11 -75 14 -64 13 -217 14 -249 2z"/>
</g>
</svg>
